<svg xmlns="http://www.w3.org/2000/svg" width="430" height="430" fill="none" viewBox="0 0 430 430"><path fill="url(#QRAe1nkM1Ca)" d="M267.967 139.035c-20.047-20.047-52.55-20.047-72.597 0a52 52 0 0 0-3.368 3.71 52 52 0 0 0-3.369-3.71c-20.046-20.047-52.549-20.047-72.596 0s-20.047 52.55 0 72.596l71.722 71.723a6 6 0 0 0 8.486 0l71.722-71.723c20.047-20.046 20.047-52.549 0-72.596"/><path fill="url(#Gt-VsqXrlZb)" fill-rule="evenodd" d="M294.426 302.909c-26.861 24.588-62.642 39.591-101.928 39.591-83.395 0-151-67.605-151-151s67.605-151 151-151 151 67.605 151 151c0 39.792-15.392 75.99-40.547 102.963l76.294 76.294a6.001 6.001 0 0 1-8.486 8.486zM53.498 191.5c0-76.768 62.232-139 139-139s139 62.232 139 139c0 38.385-15.559 73.137-40.715 98.291a6.2 6.2 0 0 0-.954.944c-25.074 24.597-59.431 39.765-97.331 39.765-76.768 0-139-62.232-139-139" clip-rule="evenodd"/><defs><linearGradient id="QRAe1nkM1Ca" x1="152.558" x2="334.332" y1="116.117" y2="320.265" gradientUnits="userSpaceOnUse"><stop stop-color="#a45aa5"/><stop offset="1" stop-color="#de8bf3"/></linearGradient><linearGradient id="Gt-VsqXrlZb" x1="152.558" x2="334.332" y1="116.117" y2="320.265" gradientUnits="userSpaceOnUse"><stop stop-color="#a45aa5"/><stop offset="1" stop-color="#de8bf3"/></linearGradient></defs></svg>