<svg xmlns="http://www.w3.org/2000/svg" width="430" height="430" fill="none" viewBox="0 0 430 430"><path fill="url(#_8EPttod1Ba)" d="M211 213.1h.1c3.3 0 6 2.7 6 6s-2.7 6-6 6h-.1c-3.3 0-6-2.7-6-6s2.7-6 6-6"/><path fill="url(#tHEl0PoamJb)" d="M240.1 213h-.1c-3.3 0-6 2.7-6 6s2.7 6 6 6h.1c3.3 0 6-2.7 6-6s-2.7-6-6-6"/><path fill="url(#ol5gh0aKm7c)" d="M224.9 187.3h.1c3.3 0 6 2.7 6 6s-2.7 6-6 6h-.1c-3.3 0-6-2.7-6-6s2.7-6 6-6"/><path fill="url(#I1tP7MpBIEd)" fill-rule="evenodd" d="M364.8 180.2c7.1 2.8 13.2 6.3 18.1 10.4 7 5.7 10.8 14.1 10.3 23-.4 8.8-4.9 16.7-12.3 21.6-12.6 8.4-30.8 14.2-54.1 17.3 17.1 16.3 28.4 31.6 33.6 45.7 3.1 8.3 2.1 17.4-2.7 24.8-4.9 7.5-12.8 12.1-21.8 12.6-6.5.4-13.5-.3-20.8-2.1-4.6-1.1-9.3-.1-13.1 2.6-3.7 2.8-6.1 7-6.4 11.6-.6 7.9-2 14.6-4.3 20.5-3.2 8.3-9.9 14.4-18.5 16.7-2.4.7-4.9 1-7.4 1-6.2 0-12.2-2-17.3-6-11.9-9.4-23-24.9-33.2-46.1-10.2 21.3-21.4 36.8-33.2 46.1-6.9 5.5-15.8 7.4-24.4 5.1-8.7-2.3-15.6-8.4-18.9-16.7-2.5-6.3-4-13.3-4.4-20.6-.3-4.6-2.7-8.8-6.4-11.5-3.8-2.8-8.6-3.7-13.1-2.6-7.3 1.8-14.3 2.5-20.8 2.1-8.9-.5-16.8-5.1-21.7-12.6-4.8-7.5-5.9-16.6-2.8-24.9 5.3-14.2 16.5-29.6 33.5-45.7-23.3-3.2-41.4-9-54-17.3-7.5-4.9-12-12.9-12.4-21.8s3.3-17.3 10.2-22.9c5.4-4.3 11.6-7.9 18.1-10.4 4.3-1.7 7.6-5.3 9-9.7 1.4-4.5.9-9.2-1.6-13.1-4-6.4-6.9-12.9-8.5-19.2-2.2-8.6-.3-17.5 5.3-24.5 5.6-6.9 14-10.7 22.9-10.3 15.3.7 33.4 6.7 53.8 17.8-4.2-23-4.3-42.1-.2-56.7 2.4-8.7 8.6-15.4 17-18.6s17.5-2.2 25 2.7c5.5 3.5 10.7 8.2 15.5 14 3 3.5 7.3 5.5 12 5.5 4.6 0 9-2.1 12-5.6 4.8-5.7 10-10.4 15.5-14 7.6-4.9 16.7-5.8 25.1-2.6 8.3 3.2 14.4 9.9 16.8 18.5 4 14.7 3.9 33.7-.3 56.8 20.8-11.3 38.8-17.2 53.8-17.9 9-.4 17.3 3.4 22.9 10.3 5.6 7 7.5 15.9 5.3 24.6-1.6 6.3-4.5 12.8-8.5 19.2-2.4 3.9-3 8.7-1.6 13.1 1.4 4.5 4.7 8 9 9.8M166.5 57c-4.7 1.8-8.2 5.6-9.6 10.5-4.1 14.9-3.2 36.4 2.8 62.2l30.5 33.1c5.8-2.7 12.2-4.5 18.9-5.2v-33.7c0-3.3 2.7-6 6-6s6 2.7 6 6v33.7c6.7.7 13 2.5 18.9 5.2l29.7-32.2c6-26.3 7.1-48.1 2.9-63.1-1.3-4.9-4.8-8.7-9.5-10.5-4.8-1.8-10-1.3-14.3 1.5-4.4 3-8.8 6.9-12.8 11.7-5.3 6.2-13 9.8-21.2 9.8s-15.9-3.6-21.2-9.8c-4-4.9-8.3-8.7-12.8-11.6-4.4-2.8-9.5-3.4-14.3-1.6m48.6 206.1c25.9 0 46.9-21 46.9-46.9s-21-46.9-46.9-46.9-46.9 21-46.9 46.9 21 46.9 46.9 46.9M48.5 212.9c.2 5 2.8 9.6 7 12.4 13 8.7 33.7 14.3 61.2 16.7l42.4-7.2c-1.9-5.8-3-12.1-3-18.6 0-4.2.5-8.3 1.3-12.3l-32-10.5c-3.1-1.1-4.8-4.5-3.8-7.6 1.1-3.1 4.5-4.8 7.6-3.8l31.9 10.6c4.1-9.3 10.5-17.4 18.5-23.4L150.9 138c-23.2-14.1-43.8-22-59.7-22.7-5.1-.2-9.8 2-13 5.9-3.2 4-4.3 9.1-3 14 1.4 5.1 3.7 10.4 7.1 15.8 4.4 6.9 5.4 15.3 2.9 23.1-2.6 7.8-8.4 14.1-16 17.2h-.1c-5.3 2.1-10.5 5-14.9 8.6-3.8 3.2-5.9 7.9-5.7 13m112 160.5c4.8 1.3 9.9.2 13.8-2.9 12.2-9.7 23.9-27.4 34.6-52.7V275c-8.5-.9-16.5-3.6-23.6-7.7l-19.8 27.2c-2 2.7-5.7 3.2-8.4 1.3-2.7-2-3.2-5.7-1.3-8.4l19.8-27.2c-4.5-4.1-8.3-8.8-11.4-14l-44.8 7.6c-20 17.4-33.4 34.2-38.8 48.7-1.8 4.7-1.2 9.9 1.6 14.1 2.8 4.3 7.3 6.9 12.4 7.2 5.2.3 11-.3 17.2-1.8 8-2 16.4-.3 23 4.5s10.7 12.2 11.3 20.4c.4 6.1 1.6 11.8 3.6 17 1.9 4.7 5.8 8.2 10.8 9.5m187.2-56.8c2.7-4.2 3.3-9.4 1.5-14.1-5.3-14.5-18.4-30.9-38.9-48.9l-44.4-7.7c-3.1 5.3-7 10.1-11.6 14.2l19.8 27.2c2 2.7 1.4 6.4-1.3 8.4s-6.4 1.4-8.4-1.3l-19.8-27.2c-7 4.1-15.1 6.8-23.6 7.7v43.3c10.7 25 22.3 42.6 34.5 52.3 4 3.2 9.2 4.2 14.1 2.9s8.7-4.8 10.5-9.5c1.9-4.8 3.1-10.4 3.6-17.1.6-8.1 4.7-15.5 11.3-20.3s15-6.5 23-4.5c6.1 1.5 11.9 2.1 17.2 1.8 5.2-.3 9.7-2.9 12.5-7.2m26.6-91.3c4.2-2.8 6.8-7.2 7-12.2.3-5.1-1.9-9.9-6-13.3-4-3.3-9-6.2-15-8.6-7.7-3.1-13.5-9.4-16-17.2s-1.4-16.2 2.9-23.1c3.3-5.3 5.7-10.7 7-15.8 1.3-4.9.2-10-3-14s-7.9-6.1-13-5.9c-15.3.6-35 8-58.3 21.9l-29.4 32c8 6.1 14.4 14.1 18.5 23.4l31.9-10.5c3.2-1.1 6.6.7 7.6 3.8 1.1 3.2-.7 6.6-3.8 7.6l-32 10.5c.8 3.9 1.3 8.1 1.3 12.3 0 6.4-1.1 12.6-3 18.4l42.2 7.4c27.5-2.4 48-8 61.1-16.7" clip-rule="evenodd"/><defs><linearGradient id="_8EPttod1Ba" x1="88.1273" x2="262.889" y1="102.034" y2="308.604" gradientUnits="userSpaceOnUse"><stop stop-color="#a45aa5"/><stop offset="1" stop-color="#de8bf3"/></linearGradient><linearGradient id="tHEl0PoamJb" x1="88.1273" x2="262.889" y1="102.034" y2="308.604" gradientUnits="userSpaceOnUse"><stop stop-color="#a45aa5"/><stop offset="1" stop-color="#de8bf3"/></linearGradient><linearGradient id="ol5gh0aKm7c" x1="88.1273" x2="262.889" y1="102.034" y2="308.604" gradientUnits="userSpaceOnUse"><stop stop-color="#a45aa5"/><stop offset="1" stop-color="#de8bf3"/></linearGradient><linearGradient id="I1tP7MpBIEd" x1="88.1273" x2="262.889" y1="102.034" y2="308.604" gradientUnits="userSpaceOnUse"><stop stop-color="#a45aa5"/><stop offset="1" stop-color="#de8bf3"/></linearGradient></defs></svg>